<?xml version="1.0" encoding="iso-8859-1"?>
<!-- Generator: Adobe Illustrator 19.1.0, SVG Export Plug-In . SVG Version: 6.00 Build 0)  -->
<svg xmlns="http://www.w3.org/2000/svg" xmlns:xlink="http://www.w3.org/1999/xlink" version="1.1" id="Capa_1" x="0px" y="0px" viewBox="0 0 537.18 537.18" style="enable-background:new 0 0 537.18 537.18;" xml:space="preserve" width="512px" height="512px">
<g>
	<g>
		<path d="M266.7,287.513L514.92,86.927c-7.14-5.046-15.96-7.569-25.62-7.569H44.1c-9.66,0-18.48,2.523-25.62,7.569L266.7,287.513z" fill="#FFFFFF"/>
		<path d="M317.94,267.749l210,169.468c5.46-7.569,9.24-16.821,9.24-26.493V124.773c0-10.092-4.2-18.923-9.24-26.493L317.94,267.749    z" fill="#FFFFFF"/>
		<path d="M7.56,98.281C2.1,105.85,0,115.102,0,124.773v285.951c0,10.092,2.1,18.923,7.56,26.493l209.16-169.468L7.56,98.281z" fill="#FFFFFF"/>
		<path d="M304.5,278.682l-32.34,26.493c-1.68,1.262-3.36,1.682-5.46,1.682s-3.78-0.421-5.46-1.682l-32.34-26.493L18.48,449.412    c7.14,5.046,15.96,8.41,25.62,8.41h445.2c9.66,0,18.48-3.364,25.62-8.41L304.5,278.682z" fill="#FFFFFF"/>
	</g>
</g>
<g>
</g>
<g>
</g>
<g>
</g>
<g>
</g>
<g>
</g>
<g>
</g>
<g>
</g>
<g>
</g>
<g>
</g>
<g>
</g>
<g>
</g>
<g>
</g>
<g>
</g>
<g>
</g>
<g>
</g>
</svg>
